# xmcd
#
# Track frame offsets: 
#        150
#        14054
#        24378
#        34740
#        46151
#        60041
#        71570
#        83028
#        92266
#        106231
#        118547
#        130068
#        142797
#        153391
#        166163
#        180395
#        193692
#        206844
#        220288
#        233589
#        244452
#        253848
#        263853
#
# Disc length: 3653 seconds
#
# Revision: 0
# Processed by: cddbd v1.5.2PL0 Copyright (c) Steve Scherf et al.
# Submitted via: ExactAudioCopy v1.1
#
DISCID=2f0e4317
DTITLE=Various Artist - All-Time Country Favourites 1950's Disc 2
DYEAR=2008
DGENRE=Country
TTITLE0=Ernest Tubb and Red Foley with the Sunshine Trio - Godnight Ir
TTITLE0=ene
TTITLE1=Hank Thompson - Wake up, Irene
TTITLE2=Chet Atkins - Mister Sandman
TTITLE3=Carl Smith - Hey Joe !
TTITLE4=Patsy Cline - A church, a courtroom and then goodbye
TTITLE5=Ray Price - Crazy Arms
TTITLE6=Johnny Horton - The battle of New Orleans
TTITLE7=Frankie Laine - Rawhide
TTITLE8=Eddy Arnold - Tennessee stud
TTITLE9=Hank Thompson - The wild side of life
TTITLE10=Kitty Wells - It wasn't God who mad honky tonk angels
TTITLE11=Porter Waggoner - A satisfied mind
TTITLE12=Faron Young - Live hard, love hard, die young
TTITLE13=Hank Snow - I'm movin' on
TTITLE14=Ernest Tubb - Missing in action
TTITLE15=Lefty Frizzell - If you've got the money, I've got the time
TTITLE16=Hank Williams - Jambalaya ( on the bayou )
TTITLE17=Stuart Hamblen - This ole house
TTITLE18=Jerry Lee Lewis - You win again
TTITLE19=Everly Brothers - Bye bye love
TTITLE20=Elvis Presley - Blue moon of Kentucky
TTITLE21=Roy Orbison - Ooby dooby
TTITLE22=Carl Perkins - Blue suede shoes
EXTD=
EXTT0=
EXTT1=
EXTT2=
EXTT3=
EXTT4=
EXTT5=
EXTT6=
EXTT7=
EXTT8=
EXTT9=
EXTT10=
EXTT11=
EXTT12=
EXTT13=
EXTT14=
EXTT15=
EXTT16=
EXTT17=
EXTT18=
EXTT19=
EXTT20=
EXTT21=
EXTT22=
PLAYORDER=
